<?xml version="1.0" encoding="utf-8"?>
<!-- Generator: Adobe Illustrator 25.0.0, SVG Export Plug-In . SVG Version: 6.00 Build 0)  -->
<svg version="1.1" id="圖層_1" xmlns="http://www.w3.org/2000/svg" xmlns:xlink="http://www.w3.org/1999/xlink" x="0px" y="0px"
	 viewBox="0 0 300 50" style="enable-background:new 0 0 300 50;" xml:space="preserve">
<style type="text/css">
	.st0{fill:#FFFFFF;}
</style>
<g>
	<g>
		<path class="st0" d="M41.2,43.2h10.1c1.9,0,3.5-1.3,3.9-3.1L59,23.7c0.4-1.8,2-3.1,3.9-3.1h3.5l-2.8,11.9h10.1
			c1.9,0,3.5-1.3,3.9-3.1l3-12.9H50.5c-1.9,0-3.5,1.3-3.9,3.1L41.2,43.2z"/>
		<path class="st0" d="M121,43.2h10.1c1.9,0,3.5-1.3,3.9-3.1l3.8-16.4c0.4-1.8,2-3.1,3.9-3.1h3.5L141,43.2h10c1.9,0,3.5-1.3,3.9-3.1
			l5.4-23.5h-30.1c-1.9,0-3.5,1.3-3.9,3.1L121,43.2z"/>
		<path class="st0" d="M8.6,11.7L1.4,43.2h10.1c1.9,0,3.5-1.3,3.9-3.1l1.9-8.4c0.4-1.8,2-3.1,3.9-3.1h13.6c1.9,0,3.5-1.3,3.9-3.1
			l0.2-0.9h-20l2-8.9c0.4-1.8,2-3.1,3.9-3.1h163l-0.2,0.9c-0.4,1.8-2,3.1-3.9,3.1h-13.6c-1.9,0-3.5,1.3-3.9,3.1l-5.4,23.5h30.1
			c1.9,0,3.5-1.3,3.9-3.1l5.6-24.4c0.4-1.8,2-3.1,3.9-3.1h33.5c1.9,0,3.5-1.3,3.9-3.1l0.2-0.9H12.5C10.6,8.6,9,9.9,8.6,11.7
			 M178.5,39.2H175l3.6-15.5c0.4-1.8,2-3.1,3.9-3.1h3.5l-3.6,15.5C182,37.9,180.4,39.2,178.5,39.2"/>
		<path class="st0" d="M206.2,19.7l-5.4,23.5h30.1c1.9,0,3.5-1.3,3.9-3.1l5.4-23.5H210C208.2,16.6,206.6,17.9,206.2,19.7
			 M218.4,39.2h-3.5l3.6-15.5c0.4-1.8,2-3.1,3.9-3.1h3.5l-3.6,15.5C221.9,37.9,220.3,39.2,218.4,39.2"/>
		<path class="st0" d="M86.5,19.7l-0.2,0.9h19.9l-0.2,0.9c-0.4,1.8-2,3.1-3.9,3.1H88.6c-1.9,0-3.5,1.3-3.9,3.1l-3.6,15.5h30.1
			c1.9,0,3.5-1.3,3.9-3.1l5.4-23.5H90.4C88.6,16.6,86.9,17.9,86.5,19.7 M98.8,39.2h-3.5l1.7-7.5c0.4-1.8,2-3.1,3.9-3.1h3.5l-1.7,7.5
			C102.3,37.9,100.7,39.2,98.8,39.2"/>
	</g>
	<path class="st0" d="M264.7,0.3c-6.2,0-11.7,3.4-14.6,8.3h4.2c2.7,0,5.1,1.7,6,4l0,0c0.1,0,0.1,0,0.2,0c0.5,0,1,0,1.5,0.1
		c2.7,0.4,5.1,1.8,6.7,3.8c-2.7,0.1-5.3,0.5-7.7,1.3c-0.3,0.1-0.6,0.2-0.9,0.3c-2.3,0.9-4.5,2-6.5,3.4c-1.2,0.9-2.4,1.8-3.4,2.9
		c-0.2,0.2-0.3,0.3-0.5,0.5c-0.8,0.9-1.6,1.8-2.3,2.7c-3.4,4.6-5.3,10.2-5.3,16.3c0,1.9,0.2,3.8,0.6,5.6c1.5-7.4,6.1-13.8,12.3-17.7
		c0.2-0.1,0.4-0.3,0.6-0.4c4.1-2.4,8.9-3.8,14-3.8c0.1,0,1.9,0,1.9,0c3.1,0,5.8-1.3,7.7-3.4c0.3-0.3,6.3-7.8,6.3-7.8H275l0,0
		c0-2.2,1.8-3.9,3.9-3.9h4.8c3.4,0,6.3-1.6,8.3-4l6.8-8.3h-34.1V0.3z"/>
</g>
</svg>
